<svg width="14" height="15" viewBox="0 0 14 15" fill="none" xmlns="http://www.w3.org/2000/svg">
<path d="M7.823 13.1699L13 7.86987M9.66701 3.66992L4.058 9.38989C3.808 9.63989 3.66701 9.97984 3.66701 10.3398C3.66701 10.6898 3.808 11.03 4.058 11.28C4.308 11.53 4.647 11.6699 5 11.6699C5.354 11.6699 5.69299 11.53 5.94299 11.28L11.552 5.55981C12.052 5.05981 12.333 4.37992 12.333 3.66992C12.333 2.95992 12.052 2.28003 11.552 1.78003C11.052 1.28003 10.374 1 9.66701 1C8.96001 1 8.282 1.28003 7.782 1.78003L2.172 7.51001C1.421 8.26001 1 9.27984 1 10.3398C1 11.3998 1.421 12.4199 2.172 13.1699C2.922 13.9199 3.939 14.3398 5 14.3398C6.061 14.3398 7.07899 13.9199 7.82899 13.1699" stroke="#E5E7EB" stroke-linecap="round" stroke-linejoin="round"/>
</svg>
