<svg width="20" height="22" viewBox="0 0 20 22" fill="none" xmlns="http://www.w3.org/2000/svg">
<path d="M10 12V1L18 5L10 9" stroke="#3B82F6" stroke-width="2" stroke-linecap="round" stroke-linejoin="round"/>
<path d="M18.561 9.222C19.093 10.862 19.143 12.621 18.704 14.288C18.266 15.956 17.3581 17.463 16.0881 18.629C14.8181 19.795 13.239 20.572 11.54 20.867C9.84104 21.162 8.09407 20.963 6.50507 20.293C4.91607 19.623 3.55306 18.511 2.57806 17.089C1.60206 15.667 1.05609 13.995 1.00409 12.271C0.952089 10.548 1.39706 8.845 2.28406 7.367C3.17206 5.889 4.46505 4.69601 6.01105 3.93201" stroke="#3B82F6" stroke-width="2" stroke-linecap="round" stroke-linejoin="round"/>
<path d="M6.00215 8.99699C5.50115 9.66399 5.17511 10.446 5.05311 11.271C4.93111 12.097 5.01816 12.939 5.30616 13.723C5.59316 14.506 6.07213 15.205 6.69813 15.755C7.32513 16.306 8.07914 16.692 8.89314 16.876C9.70714 17.061 10.5532 17.039 11.3562 16.813C12.1592 16.586 12.8931 16.163 13.4901 15.58C14.0881 14.998 14.5301 14.275 14.7761 13.478C15.0231 12.681 15.0661 11.835 14.9021 11.017" stroke="#3B82F6" stroke-width="2" stroke-linecap="round" stroke-linejoin="round"/>
</svg>
